<svg width="1448" height="99" viewBox="0 0 1448 99" fill="none" xmlns="http://www.w3.org/2000/svg">
<path d="M0 98.8543C0 98.8543 40.8477 81.3822 73.5 77.9493C95.8077 75.6039 132 77.9493 132 77.9493C132 77.9493 168.5 76.4887 171.5 92.4303C174.5 108.372 262 84.8826 264.5 77.9493C267 71.0159 321.5 77.9493 321.5 77.9493C321.5 77.9493 353.042 97.0739 382 98.8543H391.977C425.397 96.9943 462.5 77.9493 462.5 77.9493C462.5 77.9493 476.826 65.543 489 58.6523C513.132 44.9931 529.184 33.4366 566.5 31.6722C592.674 30.4347 631.5 40.07 631.5 40.07H710.5C710.5 40.07 753.029 30.8152 777.5 22.7385C797.108 16.2667 802.194 8.19102 824.5 4.15618C848.958 -0.267909 869.257 -2.40115 891.5 4.15618C913.126 10.5316 921.5 31.6722 921.5 31.6722L958.5 52.756C958.5 52.756 980.94 80.0951 1012 89.2058C1062.81 104.11 1103.31 77.8966 1163 77.9493C1198.5 77.9806 1218.25 80.052 1253.5 82.0588C1293.48 84.3346 1355.5 89.2058 1355.5 89.2058L1448 98.8543H391.977C388.6 99.0423 385.26 99.0547 382 98.8543H0Z" fill="#BAC5FF"/>
</svg>
