<svg width="1448" height="209" viewBox="0 0 1448 209" fill="none" xmlns="http://www.w3.org/2000/svg">
<path d="M0 207.734C0 207.734 40.8477 171.018 73.5 163.804C95.8077 158.875 132 163.804 132 163.804C132 163.804 168.5 160.734 171.5 194.234C174.5 227.734 262 178.374 264.5 163.804C267 149.234 321.5 163.804 321.5 163.804C321.5 163.804 353.042 203.992 382 207.734H391.977C425.397 203.825 462.5 163.804 462.5 163.804C462.5 163.804 476.826 137.733 489 123.253C513.132 94.5492 529.184 70.264 566.5 66.5565C592.674 63.956 631.5 84.2037 631.5 84.2037H710.5C710.5 84.2037 753.029 64.7554 777.5 47.7829C797.108 34.1832 802.194 17.2127 824.5 8.73385C848.958 -0.562988 869.257 -5.04582 891.5 8.73385C913.126 22.1314 921.5 66.5565 921.5 66.5565L958.5 110.862C958.5 110.862 980.94 168.313 1012 187.458C1062.81 218.778 1103.31 163.693 1163 163.804C1198.5 163.87 1218.25 168.223 1253.5 172.44C1293.48 177.222 1355.5 187.458 1355.5 187.458L1448 207.734H391.977C388.6 208.129 385.26 208.155 382 207.734H0Z" fill="#BAC5FF"/>
</svg>
