<svg width="406" height="24" viewBox="0 0 406 24" fill="none" xmlns="http://www.w3.org/2000/svg">
<path d="M0.517045 21V3.54545H4.20739V10.7472H11.6989V3.54545H15.3807V21H11.6989V13.7898H4.20739V21H0.517045ZM17.7585 6.58807V3.54545H32.0938V6.58807H26.75V21H23.1023V6.58807H17.7585ZM34.4545 3.54545H39.0057L43.8125 15.2727H44.017L48.8239 3.54545H53.375V21H49.7955V9.6392H49.6506L45.1335 20.9148H42.696L38.179 9.59659H38.0341V21H34.4545V3.54545ZM56.4155 21V3.54545H60.1058V17.9574H67.5888V21H56.4155ZM82.6996 4.56C82.3636 7.008 81.8836 9.816 81.0436 12.648C79.6036 17.496 77.5396 20.472 74.9236 20.472C72.2356 20.472 70.0276 17.52 70.0276 13.464C70.0276 7.944 74.8516 3.192 81.0676 3.192C86.9956 3.192 90.7636 7.32 90.7636 12.576C90.7636 17.616 87.6676 21.192 81.6196 22.128L79.7956 19.296C80.7316 19.176 81.4036 19.056 82.0516 18.912C85.0996 18.168 87.4996 15.984 87.4996 12.456C87.4996 8.688 85.1476 6 80.9956 6C75.9076 6 73.1236 10.152 73.1236 13.176C73.1236 15.6 74.0836 16.776 74.9956 16.776C76.0276 16.776 76.9396 15.24 77.9476 12C78.6436 9.744 79.1716 6.984 79.4116 4.464L82.6996 4.56ZM105.02 7.608H113.612V10.2H105.02V7.608ZM105.044 13.272H113.636V15.888H105.044V13.272ZM105.02 18.96H113.636V21.552H105.02V18.96ZM103.652 1.92H114.98V22.824H112.076V4.632H106.412V22.968H103.652V1.92ZM93.5716 5.568H102.812V8.304H93.5716V5.568ZM97.0516 0.623999H99.8116V23.16H97.0516V0.623999ZM96.8836 7.416L98.6116 8.016C97.8196 11.928 96.2356 16.536 94.3396 19.032C94.0756 18.216 93.4036 17.04 92.9716 16.32C94.6996 14.232 96.2356 10.488 96.8836 7.416ZM99.5956 9.528C100.292 10.2 102.644 13.104 103.172 13.752L101.54 16.08C100.844 14.664 99.1396 12.048 98.2756 10.848L99.5956 9.528ZM128.252 5.976H139.7V8.736H128.252V5.976ZM117.62 4.32H129.044V6.984H117.62V4.32ZM134.276 0.623999H137.132V19.584C137.132 21.216 136.82 22.032 135.908 22.536C134.996 23.04 133.58 23.136 131.564 23.136C131.468 22.296 131.06 20.928 130.652 20.04C131.996 20.112 133.292 20.112 133.724 20.112C134.132 20.088 134.276 19.968 134.276 19.56V0.623999ZM127.988 11.76L130.316 10.632C131.444 12.216 132.596 14.304 132.98 15.744L130.484 17.016C130.124 15.6 129.092 13.392 127.988 11.76ZM118.076 10.368L120.092 8.736C122.972 11.784 126.38 15.912 127.772 18.768L125.468 20.736C124.196 17.856 120.908 13.536 118.076 10.368ZM121.82 0.647999H124.58V5.952H121.82V0.647999ZM124.436 7.464L127.22 7.872C125.996 14.832 123.524 19.896 118.892 22.992C118.532 22.416 117.524 21.24 116.948 20.736C121.292 18.192 123.476 13.608 124.436 7.464ZM159.74 3.744C159.74 4.512 160.364 5.136 161.132 5.136C161.876 5.136 162.5 4.512 162.5 3.744C162.5 2.976 161.876 2.352 161.132 2.352C160.364 2.352 159.74 2.976 159.74 3.744ZM158.252 3.744C158.252 2.16 159.548 0.863999 161.132 0.863999C162.692 0.863999 163.988 2.16 163.988 3.744C163.988 5.328 162.692 6.624 161.132 6.624C159.548 6.624 158.252 5.328 158.252 3.744ZM145.124 13.536C146.18 10.872 147.092 7.488 147.404 4.416L150.884 5.16C150.692 5.832 150.404 7.008 150.308 7.56C149.972 9.24 149.108 12.528 148.268 14.76C147.404 17.088 145.988 19.824 144.74 21.624L141.38 20.208C142.868 18.24 144.284 15.672 145.124 13.536ZM156.956 13.056C156.044 10.536 154.508 6.984 153.476 5.16L156.668 4.128C157.676 5.976 159.308 9.672 160.22 11.976C161.084 14.16 162.356 17.976 163.004 20.352L159.452 21.504C158.804 18.672 157.916 15.648 156.956 13.056ZM184.508 4.752C184.316 5.016 183.884 5.736 183.668 6.24C182.684 8.52 180.908 11.784 178.844 14.184C176.156 17.28 172.532 20.256 168.812 22.008L166.316 19.416C170.204 17.976 173.9 15.048 176.156 12.552C177.74 10.752 179.204 8.376 179.756 6.672C178.748 6.672 172.628 6.672 171.596 6.672C170.612 6.672 169.292 6.792 168.764 6.84V3.408C169.412 3.504 170.9 3.576 171.596 3.576C172.868 3.576 179.012 3.576 180.068 3.576C181.124 3.576 182.06 3.456 182.564 3.288L184.508 4.752ZM179.156 12.192C181.628 14.208 185.036 17.784 186.596 19.704L183.86 22.08C182.084 19.608 179.468 16.752 176.9 14.424L179.156 12.192ZM191.924 10.848C192.644 10.728 193.748 10.44 194.468 10.2C196.124 9.72 200.18 8.328 203.084 8.328C206.9 8.328 209.444 10.584 209.444 14.232C209.444 18.552 205.604 21.528 197.996 21.984L196.724 19.032C202.196 18.888 206.252 17.424 206.252 14.16C206.252 12.384 204.908 11.112 202.796 11.112C200.012 11.112 195.236 13.104 193.172 13.968L191.924 10.848ZM213.024 4.512C213.96 4.488 214.92 4.44 215.376 4.392C217.392 4.2 221.328 3.864 225.744 3.48C228.216 3.264 230.832 3.12 232.536 3.048L232.56 6.144C231.264 6.144 229.2 6.168 227.904 6.456C225.024 7.224 222.84 10.344 222.84 13.176C222.84 17.136 226.536 18.552 230.592 18.768L229.488 22.056C224.448 21.744 219.696 19.032 219.696 13.824C219.696 10.368 221.64 7.656 223.272 6.432C221.016 6.672 216.12 7.176 213.336 7.8L213.024 4.512ZM253.872 7.728C253.128 8.16 252.36 8.568 251.496 9C249.984 9.768 247.728 10.8 245.544 12.24C243.552 13.536 242.208 14.928 242.208 16.584C242.208 18.312 243.864 19.248 247.2 19.248C249.672 19.248 252.912 18.864 255.048 18.36L255 21.816C252.96 22.176 250.416 22.416 247.296 22.416C242.496 22.416 238.896 21.072 238.896 16.944C238.896 13.896 241.104 11.76 243.936 9.888C246.216 8.4 248.664 7.2 250.152 6.36C251.04 5.832 251.736 5.424 252.36 4.896L253.872 7.728ZM242.544 2.232C243.72 5.424 245.208 8.328 246.336 10.296L243.6 11.904C242.304 9.72 240.864 6.576 239.52 3.48L242.544 2.232ZM254.16 1.872C254.76 2.76 255.6 4.272 256.056 5.16L254.136 6C253.632 5.016 252.912 3.576 252.24 2.664L254.16 1.872ZM256.992 0.791998C257.616 1.68 258.504 3.216 258.936 4.056L257.04 4.872C256.536 3.888 255.768 2.472 255.096 1.56L256.992 0.791998ZM275.736 13.152C275.736 11.568 274.512 10.296 272.256 10.296C269.616 10.296 267.216 11.088 266.016 11.448C265.32 11.664 264.36 12.024 263.688 12.312L262.776 8.856C263.592 8.808 264.6 8.616 265.392 8.448C267.144 8.064 269.832 7.368 272.664 7.368C276.456 7.368 279.12 9.528 279.12 13.272C279.12 18.432 274.344 21.6 267.672 22.536L265.968 19.536C271.92 18.864 275.736 16.92 275.736 13.152ZM266.304 1.632C269.112 2.232 274.56 2.712 277.08 2.712L276.624 5.664C273.816 5.472 268.608 4.992 265.848 4.512L266.304 1.632ZM289.536 3.864C289.368 4.704 289.248 6.12 289.248 6.792C289.248 8.352 289.248 10.128 289.392 11.88C289.728 15.336 290.448 17.712 291.96 17.712C293.112 17.712 294.048 14.88 294.504 12.984L296.928 15.888C295.32 20.088 293.832 21.528 291.912 21.528C289.248 21.528 286.968 19.176 286.296 12.744C286.056 10.536 286.032 7.704 286.032 6.24C286.032 5.592 286.008 4.56 285.84 3.816L289.536 3.864ZM301.536 4.392C303.816 7.152 305.664 13.152 305.928 16.824L302.76 18.072C302.4 14.184 301.104 8.376 298.488 5.4L301.536 4.392ZM323.736 13.152C323.736 11.568 322.512 10.296 320.256 10.296C317.616 10.296 315.216 11.088 314.016 11.448C313.32 11.664 312.36 12.024 311.688 12.312L310.776 8.856C311.592 8.808 312.6 8.616 313.392 8.448C315.144 8.064 317.832 7.368 320.664 7.368C324.456 7.368 327.12 9.528 327.12 13.272C327.12 18.432 322.344 21.6 315.672 22.536L313.968 19.536C319.92 18.864 323.736 16.92 323.736 13.152ZM314.304 1.632C317.112 2.232 322.56 2.712 325.08 2.712L324.624 5.664C321.816 5.472 316.608 4.992 313.848 4.512L314.304 1.632ZM336.528 3.576C338.304 3.768 340.536 3.864 343.08 3.864C345.432 3.864 348.192 3.72 350.016 3.528V6.72C348.336 6.864 345.384 7.008 343.08 7.008C340.584 7.008 338.496 6.888 336.528 6.744V3.576ZM338.544 13.728C338.328 14.592 338.136 15.36 338.136 16.176C338.136 17.688 339.624 18.816 343.08 18.816C346.296 18.816 349.368 18.456 351.504 17.856L351.528 21.24C349.416 21.72 346.536 22.032 343.176 22.032C337.704 22.032 334.92 20.208 334.92 16.896C334.92 15.528 335.232 14.352 335.4 13.44L338.544 13.728ZM375.312 7.008C374.568 7.44 373.8 7.872 372.912 8.304C371.424 9.048 368.424 10.464 366.216 11.88C364.224 13.176 362.88 14.568 362.88 16.224C362.88 17.952 364.56 18.888 367.896 18.888C370.344 18.888 373.584 18.504 375.72 18L375.696 21.456C373.632 21.792 371.112 22.056 367.992 22.056C363.192 22.056 359.568 20.712 359.568 16.584C359.568 13.536 361.8 11.4 364.656 9.528C366.936 8.016 369.96 6.528 371.424 5.688C372.336 5.16 373.008 4.752 373.632 4.248L375.312 7.008ZM363.24 1.872C364.392 5.064 365.904 7.944 367.032 9.96L364.296 11.544C362.976 9.36 361.536 6.216 360.216 3.12L363.24 1.872ZM383.888 15.767V15.4773C383.894 14.483 383.982 13.6903 384.153 13.0994C384.329 12.5085 384.585 12.0312 384.92 11.6676C385.255 11.304 385.658 10.9744 386.13 10.679C386.482 10.4517 386.798 10.2159 387.076 9.97159C387.354 9.72727 387.576 9.45739 387.741 9.16193C387.906 8.8608 387.988 8.52557 387.988 8.15625C387.988 7.7642 387.894 7.42045 387.707 7.125C387.519 6.82955 387.266 6.60227 386.948 6.44318C386.636 6.28409 386.289 6.20454 385.908 6.20454C385.539 6.20454 385.19 6.28693 384.86 6.4517C384.531 6.6108 384.261 6.84943 384.05 7.16761C383.84 7.48011 383.727 7.86932 383.71 8.33523H380.232C380.261 7.19886 380.533 6.26136 381.05 5.52273C381.567 4.77841 382.252 4.22443 383.104 3.86079C383.957 3.49148 384.897 3.30682 385.925 3.30682C387.056 3.30682 388.056 3.49432 388.925 3.86932C389.795 4.23864 390.477 4.77557 390.971 5.48011C391.465 6.18466 391.712 7.03409 391.712 8.02841C391.712 8.69318 391.602 9.28409 391.38 9.80114C391.164 10.3125 390.86 10.767 390.468 11.1648C390.076 11.5568 389.613 11.9119 389.079 12.2301C388.63 12.4972 388.261 12.7756 387.971 13.0653C387.687 13.3551 387.474 13.6903 387.332 14.071C387.195 14.4517 387.124 14.9205 387.119 15.4773V15.767H383.888ZM385.576 21.2216C385.008 21.2216 384.522 21.0227 384.119 20.625C383.721 20.2216 383.525 19.7386 383.531 19.1761C383.525 18.6193 383.721 18.142 384.119 17.7443C384.522 17.3466 385.008 17.1477 385.576 17.1477C386.116 17.1477 386.59 17.3466 386.999 17.7443C387.408 18.142 387.616 18.6193 387.621 19.1761C387.616 19.5511 387.516 19.8949 387.323 20.2074C387.136 20.5142 386.888 20.7614 386.582 20.9489C386.275 21.1307 385.94 21.2216 385.576 21.2216ZM396.391 21.2216C395.829 21.2216 395.346 21.0227 394.942 20.625C394.545 20.2216 394.346 19.7386 394.346 19.1761C394.346 18.6193 394.545 18.142 394.942 17.7443C395.346 17.3466 395.829 17.1477 396.391 17.1477C396.937 17.1477 397.414 17.3466 397.823 17.7443C398.232 18.142 398.437 18.6193 398.437 19.1761C398.437 19.5511 398.34 19.8949 398.147 20.2074C397.96 20.5142 397.712 20.7614 397.406 20.9489C397.099 21.1307 396.761 21.2216 396.391 21.2216ZM403.54 21.2216C402.977 21.2216 402.494 21.0227 402.091 20.625C401.693 20.2216 401.494 19.7386 401.494 19.1761C401.494 18.6193 401.693 18.142 402.091 17.7443C402.494 17.3466 402.977 17.1477 403.54 17.1477C404.085 17.1477 404.563 17.3466 404.972 17.7443C405.381 18.142 405.585 18.6193 405.585 19.1761C405.585 19.5511 405.489 19.8949 405.295 20.2074C405.108 20.5142 404.861 20.7614 404.554 20.9489C404.247 21.1307 403.909 21.2216 403.54 21.2216Z" fill="black"/>
</svg>
