<svg width="403" height="24" viewBox="0 0 403 24" fill="none" xmlns="http://www.w3.org/2000/svg">
<path d="M9.168 19.584H19.896V22.2H9.168V19.584ZM7.944 2.976H16.464V5.52H7.944V2.976ZM8.592 0.48L11.832 1.104C11.144 2.272 10.352 3.408 9.456 4.512C8.576 5.6 7.568 6.648 6.432 7.656C5.312 8.648 4.032 9.568 2.592 10.416C2.448 10.176 2.256 9.92 2.016 9.648C1.776 9.36 1.528 9.08 1.272 8.808C1.016 8.536 0.776 8.32 0.552 8.16C1.88 7.456 3.056 6.68 4.08 5.832C5.12 4.984 6.016 4.104 6.768 3.192C7.52 2.264 8.128 1.36 8.592 0.48ZM15.552 2.976H16.08L16.56 2.832L18.552 3.864C17.848 5.736 16.936 7.448 15.816 9C14.712 10.536 13.44 11.92 12 13.152C10.576 14.384 9.032 15.456 7.368 16.368C5.704 17.28 3.976 18.04 2.184 18.648C2.072 18.376 1.92 18.08 1.728 17.76C1.536 17.44 1.336 17.128 1.128 16.824C0.92 16.52 0.712 16.264 0.504 16.056C2.168 15.592 3.776 14.96 5.328 14.16C6.896 13.344 8.344 12.392 9.672 11.304C11.016 10.216 12.192 9.016 13.2 7.704C14.208 6.376 14.992 4.96 15.552 3.456V2.976ZM4.8 8.232L6.96 6.384C7.52 6.768 8.104 7.2 8.712 7.68C9.336 8.16 9.92 8.648 10.464 9.144C11.024 9.624 11.48 10.08 11.832 10.512L9.504 12.576C9.2 12.16 8.784 11.696 8.256 11.184C7.728 10.656 7.16 10.136 6.552 9.624C5.944 9.112 5.36 8.648 4.8 8.232ZM18.576 12.288H21.552V23.16H18.576V12.288ZM10.392 12.288H20.016V14.88H10.392V23.136H7.488V14.4L9.696 12.288H10.392ZM25.08 4.176H46.92V6.792H25.08V4.176ZM27.936 12.336H34.152V14.472H27.936V12.336ZM27.936 16.032H34.152V18.144H27.936V16.032ZM37.992 8.688H40.632V18.528H37.992V8.688ZM33.168 8.424H35.928V20.328C35.928 20.92 35.856 21.4 35.712 21.768C35.568 22.136 35.296 22.424 34.896 22.632C34.48 22.84 33.992 22.968 33.432 23.016C32.888 23.064 32.248 23.088 31.512 23.088C31.432 22.72 31.304 22.296 31.128 21.816C30.968 21.352 30.792 20.96 30.6 20.64C31.032 20.656 31.464 20.672 31.896 20.688C32.328 20.688 32.616 20.68 32.76 20.664C32.904 20.664 33.008 20.632 33.072 20.568C33.136 20.504 33.168 20.408 33.168 20.28V8.424ZM42.792 8.016H45.624V19.992C45.624 20.696 45.536 21.24 45.36 21.624C45.2 22.024 44.888 22.344 44.424 22.584C43.96 22.792 43.4 22.928 42.744 22.992C42.088 23.056 41.32 23.08 40.44 23.064C40.376 22.68 40.24 22.224 40.032 21.696C39.84 21.168 39.632 20.72 39.408 20.352C40.032 20.384 40.616 20.4 41.16 20.4C41.72 20.4 42.096 20.392 42.288 20.376C42.48 20.376 42.608 20.352 42.672 20.304C42.752 20.24 42.792 20.128 42.792 19.968V8.016ZM28.392 1.536L31.128 0.576C31.56 1.056 31.992 1.584 32.424 2.16C32.856 2.736 33.176 3.256 33.384 3.72L30.456 4.728C30.296 4.296 30.016 3.776 29.616 3.168C29.232 2.56 28.824 2.016 28.392 1.536ZM40.728 0.527999L43.848 1.464C43.368 2.232 42.872 2.984 42.36 3.72C41.864 4.44 41.4 5.064 40.968 5.592L38.376 4.704C38.664 4.32 38.952 3.888 39.24 3.408C39.528 2.928 39.8 2.44 40.056 1.944C40.328 1.432 40.552 0.959999 40.728 0.527999ZM26.4 8.424H33.96V10.848H29.112V23.016H26.4V8.424ZM60 0.863999C61.52 0.863999 62.944 1.152 64.272 1.728C65.6 2.288 66.768 3.08 67.776 4.104C68.8 5.112 69.592 6.28 70.152 7.608C70.728 8.936 71.016 10.36 71.016 11.88C71.016 13.4 70.728 14.824 70.152 16.152C69.592 17.48 68.8 18.656 67.776 19.68C66.768 20.688 65.6 21.472 64.272 22.032C62.944 22.608 61.52 22.896 60 22.896C58.48 22.896 57.056 22.608 55.728 22.032C54.4 21.472 53.224 20.688 52.2 19.68C51.192 18.656 50.4 17.48 49.824 16.152C49.264 14.824 48.984 13.4 48.984 11.88C48.984 10.36 49.264 8.936 49.824 7.608C50.4 6.28 51.192 5.112 52.2 4.104C53.224 3.08 54.4 2.288 55.728 1.728C57.056 1.152 58.48 0.863999 60 0.863999ZM60 3.816C58.896 3.816 57.856 4.024 56.88 4.44C55.904 4.856 55.04 5.44 54.288 6.192C53.552 6.928 52.976 7.784 52.56 8.76C52.144 9.72 51.936 10.76 51.936 11.88C51.936 12.984 52.144 14.024 52.56 15C52.976 15.976 53.552 16.84 54.288 17.592C55.04 18.328 55.904 18.904 56.88 19.32C57.856 19.736 58.896 19.944 60 19.944C61.12 19.944 62.16 19.736 63.12 19.32C64.096 18.904 64.952 18.328 65.688 17.592C66.44 16.84 67.024 15.976 67.44 15C67.856 14.024 68.064 12.984 68.064 11.88C68.064 10.76 67.856 9.72 67.44 8.76C67.024 7.784 66.44 6.928 65.688 6.192C64.952 5.44 64.096 4.856 63.12 4.44C62.16 4.024 61.12 3.816 60 3.816ZM84 0.863999C85.52 0.863999 86.944 1.152 88.272 1.728C89.6 2.288 90.768 3.08 91.776 4.104C92.8 5.112 93.592 6.28 94.152 7.608C94.728 8.936 95.016 10.36 95.016 11.88C95.016 13.4 94.728 14.824 94.152 16.152C93.592 17.48 92.8 18.656 91.776 19.68C90.768 20.688 89.6 21.472 88.272 22.032C86.944 22.608 85.52 22.896 84 22.896C82.48 22.896 81.056 22.608 79.728 22.032C78.4 21.472 77.224 20.688 76.2 19.68C75.192 18.656 74.4 17.48 73.824 16.152C73.264 14.824 72.984 13.4 72.984 11.88C72.984 10.36 73.264 8.936 73.824 7.608C74.4 6.28 75.192 5.112 76.2 4.104C77.224 3.08 78.4 2.288 79.728 1.728C81.056 1.152 82.48 0.863999 84 0.863999ZM84 3.816C82.896 3.816 81.856 4.024 80.88 4.44C79.904 4.856 79.04 5.44 78.288 6.192C77.552 6.928 76.976 7.784 76.56 8.76C76.144 9.72 75.936 10.76 75.936 11.88C75.936 12.984 76.144 14.024 76.56 15C76.976 15.976 77.552 16.84 78.288 17.592C79.04 18.328 79.904 18.904 80.88 19.32C81.856 19.736 82.896 19.944 84 19.944C85.12 19.944 86.16 19.736 87.12 19.32C88.096 18.904 88.952 18.328 89.688 17.592C90.44 16.84 91.024 15.976 91.44 15C91.856 14.024 92.064 12.984 92.064 11.88C92.064 10.76 91.856 9.72 91.44 8.76C91.024 7.784 90.44 6.928 89.688 6.192C88.952 5.44 88.096 4.856 87.12 4.44C86.16 4.024 85.12 3.816 84 3.816ZM121.517 21V3.54545H125.207V10.7472H132.699V3.54545H136.381V21H132.699V13.7898H125.207V21H121.517ZM138.759 6.58807V3.54545H153.094V6.58807H147.75V21H144.102V6.58807H138.759ZM155.455 3.54545H160.006L164.812 15.2727H165.017L169.824 3.54545H174.375V21H170.795V9.6392H170.651L166.134 20.9148H163.696L159.179 9.59659H159.034V21H155.455V3.54545ZM177.415 21V3.54545H181.106V17.9574H188.589V21H177.415ZM203.7 4.56C203.54 5.776 203.332 7.072 203.076 8.448C202.82 9.824 202.476 11.216 202.044 12.624C201.58 14.24 201.036 15.632 200.412 16.8C199.788 17.968 199.1 18.872 198.348 19.512C197.612 20.136 196.804 20.448 195.924 20.448C195.044 20.448 194.228 20.152 193.476 19.56C192.74 18.952 192.148 18.12 191.7 17.064C191.268 16.008 191.052 14.808 191.052 13.464C191.052 12.072 191.332 10.76 191.892 9.528C192.452 8.296 193.228 7.208 194.22 6.264C195.228 5.304 196.396 4.552 197.724 4.008C199.068 3.464 200.516 3.192 202.068 3.192C203.556 3.192 204.892 3.432 206.076 3.912C207.276 4.392 208.3 5.056 209.148 5.904C209.996 6.752 210.644 7.744 211.092 8.88C211.54 10.016 211.764 11.24 211.764 12.552C211.764 14.232 211.42 15.736 210.732 17.064C210.044 18.392 209.02 19.488 207.66 20.352C206.316 21.216 204.636 21.808 202.62 22.128L200.82 19.272C201.284 19.224 201.692 19.168 202.044 19.104C202.396 19.04 202.732 18.968 203.052 18.888C203.82 18.696 204.532 18.424 205.188 18.072C205.86 17.704 206.444 17.256 206.94 16.728C207.436 16.184 207.82 15.552 208.092 14.832C208.38 14.112 208.524 13.32 208.524 12.456C208.524 11.512 208.38 10.648 208.092 9.864C207.804 9.08 207.38 8.4 206.82 7.824C206.26 7.232 205.58 6.784 204.78 6.48C203.98 6.16 203.06 6 202.02 6C200.74 6 199.612 6.232 198.636 6.696C197.66 7.144 196.836 7.728 196.164 8.448C195.492 9.168 194.98 9.944 194.628 10.776C194.292 11.608 194.124 12.4 194.124 13.152C194.124 13.952 194.22 14.624 194.412 15.168C194.604 15.696 194.836 16.096 195.108 16.368C195.396 16.624 195.7 16.752 196.02 16.752C196.356 16.752 196.684 16.584 197.004 16.248C197.34 15.896 197.668 15.368 197.988 14.664C198.308 13.96 198.628 13.072 198.948 12C199.316 10.848 199.628 9.616 199.884 8.304C200.14 6.992 200.324 5.712 200.436 4.464L203.7 4.56ZM226.044 7.584H234.636V10.2H226.044V7.584ZM226.044 13.272H234.636V15.864H226.044V13.272ZM226.044 18.936H234.636V21.552H226.044V18.936ZM224.676 1.896H235.98V22.8H233.1V4.632H227.436V22.944H224.676V1.896ZM214.596 5.568H223.812V8.28H214.596V5.568ZM218.052 0.599999H220.812V23.136H218.052V0.599999ZM217.908 7.416L219.612 8.016C219.42 8.992 219.18 10 218.892 11.04C218.604 12.064 218.276 13.072 217.908 14.064C217.54 15.04 217.14 15.96 216.708 16.824C216.276 17.672 215.82 18.4 215.34 19.008C215.212 18.608 215.012 18.152 214.74 17.64C214.468 17.112 214.212 16.672 213.972 16.32C214.404 15.792 214.82 15.176 215.22 14.472C215.62 13.768 215.988 13.024 216.324 12.24C216.676 11.44 216.988 10.632 217.26 9.816C217.532 8.984 217.748 8.184 217.908 7.416ZM220.62 9.528C220.796 9.688 221.052 9.968 221.388 10.368C221.724 10.752 222.076 11.176 222.444 11.64C222.828 12.104 223.18 12.536 223.5 12.936C223.836 13.32 224.068 13.592 224.196 13.752L222.54 16.08C222.364 15.728 222.14 15.312 221.868 14.832C221.596 14.352 221.3 13.864 220.98 13.368C220.66 12.872 220.348 12.4 220.044 11.952C219.756 11.504 219.508 11.128 219.3 10.824L220.62 9.528ZM249.252 5.952H260.724V8.712H249.252V5.952ZM238.62 4.32H250.044V6.984H238.62V4.32ZM255.3 0.599999H258.156V19.56C258.156 20.376 258.068 21.008 257.892 21.456C257.716 21.92 257.396 22.272 256.932 22.512C256.468 22.768 255.876 22.936 255.156 23.016C254.436 23.096 253.572 23.136 252.564 23.136C252.548 22.848 252.492 22.52 252.396 22.152C252.3 21.784 252.188 21.408 252.06 21.024C251.932 20.656 251.804 20.328 251.676 20.04C252.348 20.072 252.972 20.088 253.548 20.088C254.124 20.088 254.516 20.088 254.724 20.088C254.932 20.088 255.076 20.056 255.156 19.992C255.252 19.912 255.3 19.768 255.3 19.56V0.599999ZM249.012 11.736L251.316 10.632C251.7 11.16 252.068 11.728 252.42 12.336C252.788 12.944 253.108 13.544 253.38 14.136C253.652 14.712 253.852 15.248 253.98 15.744L251.484 16.992C251.372 16.528 251.188 15.992 250.932 15.384C250.692 14.776 250.404 14.152 250.068 13.512C249.732 12.872 249.38 12.28 249.012 11.736ZM239.076 10.368L241.116 8.712C241.82 9.48 242.548 10.296 243.3 11.16C244.052 12.024 244.78 12.904 245.484 13.8C246.204 14.696 246.844 15.568 247.404 16.416C247.964 17.248 248.42 18.024 248.772 18.744L246.492 20.712C246.172 19.992 245.74 19.2 245.196 18.336C244.652 17.472 244.036 16.576 243.348 15.648C242.676 14.72 241.972 13.808 241.236 12.912C240.516 12 239.796 11.152 239.076 10.368ZM242.82 0.623999H245.58V5.952H242.82V0.623999ZM245.436 7.464L248.244 7.848C247.844 10.168 247.284 12.28 246.564 14.184C245.844 16.072 244.94 17.752 243.852 19.224C242.764 20.68 241.444 21.928 239.892 22.968C239.78 22.776 239.604 22.536 239.364 22.248C239.14 21.96 238.9 21.672 238.644 21.384C238.388 21.112 238.156 20.888 237.948 20.712C239.42 19.864 240.652 18.8 241.644 17.52C242.636 16.224 243.436 14.736 244.044 13.056C244.668 11.376 245.132 9.512 245.436 7.464ZM280.74 3.744C280.74 4.128 280.876 4.456 281.148 4.728C281.42 4.984 281.748 5.112 282.132 5.112C282.516 5.112 282.844 4.984 283.116 4.728C283.388 4.456 283.524 4.128 283.524 3.744C283.524 3.36 283.388 3.032 283.116 2.76C282.844 2.488 282.516 2.352 282.132 2.352C281.748 2.352 281.42 2.488 281.148 2.76C280.876 3.032 280.74 3.36 280.74 3.744ZM279.252 3.744C279.252 3.216 279.38 2.736 279.636 2.304C279.908 1.856 280.26 1.504 280.692 1.248C281.124 0.991999 281.604 0.863999 282.132 0.863999C282.66 0.863999 283.14 0.991999 283.572 1.248C284.004 1.504 284.348 1.856 284.604 2.304C284.876 2.736 285.012 3.216 285.012 3.744C285.012 4.256 284.876 4.728 284.604 5.16C284.348 5.592 284.004 5.944 283.572 6.216C283.14 6.472 282.66 6.6 282.132 6.6C281.604 6.6 281.124 6.472 280.692 6.216C280.26 5.944 279.908 5.592 279.636 5.16C279.38 4.728 279.252 4.256 279.252 3.744ZM266.124 13.536C266.396 12.864 266.652 12.16 266.892 11.424C267.148 10.672 267.372 9.904 267.564 9.12C267.756 8.32 267.924 7.528 268.068 6.744C268.228 5.96 268.34 5.184 268.404 4.416L271.908 5.136C271.844 5.36 271.772 5.624 271.692 5.928C271.612 6.232 271.54 6.528 271.476 6.816C271.412 7.104 271.364 7.344 271.332 7.536C271.252 7.952 271.14 8.456 270.996 9.048C270.852 9.64 270.684 10.272 270.492 10.944C270.3 11.6 270.1 12.264 269.892 12.936C269.7 13.592 269.5 14.2 269.292 14.76C269.004 15.528 268.66 16.328 268.26 17.16C267.876 17.992 267.46 18.792 267.012 19.56C266.58 20.328 266.156 21.016 265.74 21.624L262.38 20.208C263.148 19.216 263.86 18.12 264.516 16.92C265.188 15.72 265.724 14.592 266.124 13.536ZM277.98 13.032C277.74 12.392 277.476 11.712 277.188 10.992C276.9 10.272 276.596 9.552 276.276 8.832C275.956 8.112 275.644 7.432 275.34 6.792C275.036 6.152 274.756 5.6 274.5 5.136L277.692 4.104C277.932 4.568 278.212 5.128 278.532 5.784C278.852 6.44 279.172 7.136 279.492 7.872C279.812 8.592 280.124 9.312 280.428 10.032C280.732 10.752 281.004 11.4 281.244 11.976C281.452 12.504 281.676 13.128 281.916 13.848C282.172 14.568 282.428 15.32 282.684 16.104C282.956 16.872 283.204 17.624 283.428 18.36C283.668 19.096 283.868 19.76 284.028 20.352L280.476 21.504C280.268 20.56 280.028 19.6 279.756 18.624C279.484 17.648 279.196 16.688 278.892 15.744C278.604 14.8 278.3 13.896 277.98 13.032ZM305.532 4.728C305.436 4.872 305.292 5.096 305.1 5.4C304.924 5.704 304.788 5.984 304.692 6.24C304.356 6.992 303.94 7.832 303.444 8.76C302.964 9.688 302.412 10.624 301.788 11.568C301.18 12.496 300.532 13.368 299.844 14.184C298.948 15.192 297.956 16.192 296.868 17.184C295.796 18.16 294.66 19.064 293.46 19.896C292.276 20.712 291.06 21.416 289.812 22.008L287.34 19.416C288.636 18.92 289.892 18.296 291.108 17.544C292.324 16.792 293.452 15.976 294.492 15.096C295.532 14.216 296.428 13.36 297.18 12.528C297.708 11.92 298.204 11.272 298.668 10.584C299.148 9.896 299.572 9.216 299.94 8.544C300.308 7.856 300.58 7.224 300.756 6.648C300.596 6.648 300.308 6.648 299.892 6.648C299.476 6.648 298.988 6.648 298.428 6.648C297.884 6.648 297.308 6.648 296.7 6.648C296.092 6.648 295.508 6.648 294.948 6.648C294.404 6.648 293.924 6.648 293.508 6.648C293.092 6.648 292.796 6.648 292.62 6.648C292.284 6.648 291.932 6.664 291.564 6.696C291.196 6.712 290.844 6.736 290.508 6.768C290.188 6.784 289.94 6.8 289.764 6.816V3.408C290.004 3.424 290.3 3.448 290.652 3.48C291.004 3.512 291.356 3.536 291.708 3.552C292.076 3.568 292.38 3.576 292.62 3.576C292.828 3.576 293.156 3.576 293.604 3.576C294.052 3.576 294.564 3.576 295.14 3.576C295.716 3.576 296.308 3.576 296.916 3.576C297.54 3.576 298.132 3.576 298.692 3.576C299.268 3.576 299.764 3.576 300.18 3.576C300.596 3.576 300.9 3.576 301.092 3.576C301.62 3.576 302.1 3.544 302.532 3.48C302.98 3.416 303.324 3.344 303.564 3.264L305.532 4.728ZM300.156 12.192C300.78 12.688 301.444 13.264 302.148 13.92C302.852 14.576 303.548 15.256 304.236 15.96C304.924 16.664 305.556 17.344 306.132 18C306.724 18.64 307.22 19.2 307.62 19.68L304.884 22.056C304.292 21.24 303.612 20.392 302.844 19.512C302.092 18.632 301.292 17.76 300.444 16.896C299.612 16.016 298.764 15.184 297.9 14.4L300.156 12.192ZM320.268 4.224C321.004 4.32 321.828 4.392 322.74 4.44C323.668 4.472 324.604 4.488 325.548 4.488C326.508 4.472 327.428 4.44 328.308 4.392C329.188 4.328 329.948 4.264 330.588 4.2V7.296C329.852 7.36 329.044 7.416 328.164 7.464C327.284 7.496 326.38 7.512 325.452 7.512C324.524 7.512 323.612 7.496 322.716 7.464C321.836 7.416 321.02 7.36 320.268 7.296V4.224ZM322.188 14.472C322.092 14.872 322.02 15.232 321.972 15.552C321.924 15.856 321.9 16.168 321.9 16.488C321.9 16.744 321.964 16.984 322.092 17.208C322.22 17.416 322.412 17.6 322.668 17.76C322.94 17.904 323.284 18.016 323.7 18.096C324.132 18.16 324.652 18.192 325.26 18.192C326.332 18.192 327.34 18.144 328.284 18.048C329.228 17.936 330.228 17.776 331.284 17.568L331.332 20.808C330.564 20.952 329.676 21.064 328.668 21.144C327.676 21.224 326.5 21.264 325.14 21.264C323.076 21.264 321.54 20.92 320.532 20.232C319.524 19.528 319.02 18.56 319.02 17.328C319.02 16.864 319.052 16.384 319.116 15.888C319.196 15.376 319.3 14.816 319.428 14.208L322.188 14.472ZM316.572 2.616C316.508 2.776 316.436 3 316.356 3.288C316.276 3.576 316.196 3.856 316.116 4.128C316.052 4.4 316.004 4.608 315.972 4.752C315.924 5.088 315.844 5.528 315.732 6.072C315.636 6.6 315.532 7.2 315.42 7.872C315.324 8.528 315.228 9.2 315.132 9.888C315.036 10.576 314.956 11.24 314.892 11.88C314.844 12.52 314.82 13.08 314.82 13.56C314.82 13.784 314.82 14.04 314.82 14.328C314.836 14.616 314.868 14.88 314.916 15.12C315.028 14.848 315.148 14.576 315.276 14.304C315.404 14.032 315.532 13.76 315.66 13.488C315.788 13.2 315.9 12.928 315.996 12.672L317.484 13.848C317.26 14.504 317.028 15.208 316.788 15.96C316.564 16.712 316.356 17.424 316.164 18.096C315.988 18.752 315.852 19.296 315.756 19.728C315.724 19.904 315.692 20.104 315.66 20.328C315.644 20.552 315.636 20.728 315.636 20.856C315.636 20.984 315.636 21.136 315.636 21.312C315.652 21.504 315.668 21.68 315.684 21.84L312.9 22.032C312.66 21.2 312.444 20.096 312.252 18.72C312.06 17.328 311.964 15.816 311.964 14.184C311.964 13.288 312.004 12.376 312.084 11.448C312.164 10.52 312.26 9.632 312.372 8.784C312.484 7.92 312.588 7.136 312.684 6.432C312.796 5.728 312.892 5.144 312.972 4.68C313.004 4.344 313.044 3.968 313.092 3.552C313.156 3.12 313.196 2.712 313.212 2.328L316.572 2.616ZM334.812 7.848C335.26 7.768 335.756 7.656 336.3 7.512C336.844 7.368 337.332 7.24 337.764 7.128C338.228 6.984 338.852 6.784 339.636 6.528C340.436 6.272 341.316 6.016 342.276 5.76C343.236 5.504 344.212 5.288 345.204 5.112C346.212 4.92 347.148 4.824 348.012 4.824C349.468 4.824 350.78 5.096 351.948 5.64C353.116 6.184 354.044 6.968 354.732 7.992C355.42 9.016 355.764 10.272 355.764 11.76C355.764 12.848 355.564 13.856 355.164 14.784C354.764 15.712 354.172 16.544 353.388 17.28C352.62 18.016 351.684 18.656 350.58 19.2C349.476 19.744 348.212 20.184 346.788 20.52C345.38 20.84 343.828 21.04 342.132 21.12L340.74 17.928C342.372 17.896 343.884 17.752 345.276 17.496C346.684 17.224 347.916 16.84 348.972 16.344C350.028 15.832 350.852 15.192 351.444 14.424C352.036 13.656 352.332 12.752 352.332 11.712C352.332 10.96 352.164 10.288 351.828 9.696C351.492 9.088 350.988 8.608 350.316 8.256C349.66 7.904 348.852 7.728 347.892 7.728C347.188 7.728 346.412 7.816 345.564 7.992C344.716 8.152 343.844 8.368 342.948 8.64C342.068 8.912 341.204 9.208 340.356 9.528C339.508 9.832 338.724 10.136 338.004 10.44C337.284 10.744 336.676 11 336.18 11.208L334.812 7.848ZM363.756 3.84C363.692 4.128 363.636 4.456 363.588 4.824C363.556 5.192 363.524 5.552 363.492 5.904C363.476 6.256 363.468 6.544 363.468 6.768C363.452 7.296 363.444 7.84 363.444 8.4C363.46 8.96 363.476 9.536 363.492 10.128C363.524 10.704 363.564 11.28 363.612 11.856C363.724 13.008 363.884 14.024 364.092 14.904C364.3 15.784 364.572 16.472 364.908 16.968C365.244 17.448 365.668 17.688 366.18 17.688C366.452 17.688 366.716 17.536 366.972 17.232C367.244 16.928 367.484 16.536 367.692 16.056C367.916 15.56 368.108 15.04 368.268 14.496C368.444 13.952 368.596 13.44 368.724 12.96L371.124 15.888C370.596 17.28 370.068 18.392 369.54 19.224C369.028 20.04 368.492 20.632 367.932 21C367.372 21.352 366.764 21.528 366.108 21.528C365.244 21.528 364.42 21.24 363.636 20.664C362.868 20.088 362.212 19.16 361.668 17.88C361.124 16.584 360.74 14.864 360.516 12.72C360.436 11.984 360.372 11.208 360.324 10.392C360.292 9.576 360.268 8.8 360.252 8.064C360.252 7.328 360.252 6.72 360.252 6.24C360.252 5.904 360.236 5.504 360.204 5.04C360.172 4.576 360.124 4.16 360.06 3.792L363.756 3.84ZM375.756 4.392C376.204 4.936 376.636 5.6 377.052 6.384C377.468 7.168 377.852 8.008 378.204 8.904C378.556 9.8 378.868 10.72 379.14 11.664C379.412 12.592 379.628 13.504 379.788 14.4C379.964 15.28 380.076 16.088 380.124 16.824L376.956 18.048C376.876 17.072 376.732 16.008 376.524 14.856C376.316 13.704 376.036 12.544 375.684 11.376C375.332 10.208 374.908 9.104 374.412 8.064C373.932 7.024 373.364 6.128 372.708 5.376L375.756 4.392ZM382.493 4.488C382.973 4.472 383.429 4.456 383.861 4.44C384.293 4.408 384.629 4.384 384.869 4.368C385.365 4.32 385.973 4.264 386.693 4.2C387.413 4.136 388.221 4.064 389.117 3.984C390.029 3.904 390.997 3.824 392.021 3.744C393.045 3.648 394.109 3.552 395.213 3.456C396.045 3.392 396.877 3.336 397.709 3.288C398.541 3.224 399.325 3.176 400.061 3.144C400.813 3.096 401.461 3.064 402.005 3.048L402.029 6.12C401.597 6.12 401.101 6.128 400.541 6.144C399.981 6.16 399.421 6.192 398.861 6.24C398.317 6.272 397.829 6.336 397.397 6.432C396.677 6.624 396.005 6.952 395.381 7.416C394.773 7.864 394.237 8.4 393.773 9.024C393.309 9.648 392.949 10.32 392.693 11.04C392.453 11.744 392.333 12.456 392.333 13.176C392.333 13.96 392.469 14.656 392.741 15.264C393.013 15.856 393.389 16.368 393.869 16.8C394.365 17.216 394.941 17.568 395.597 17.856C396.253 18.128 396.957 18.336 397.709 18.48C398.477 18.624 399.269 18.72 400.085 18.768L398.957 22.056C397.949 21.992 396.965 21.832 396.005 21.576C395.061 21.32 394.173 20.968 393.341 20.52C392.525 20.072 391.805 19.528 391.181 18.888C390.557 18.232 390.069 17.488 389.717 16.656C389.365 15.808 389.189 14.864 389.189 13.824C389.189 12.656 389.373 11.592 389.741 10.632C390.109 9.672 390.565 8.832 391.109 8.112C391.653 7.376 392.197 6.808 392.741 6.408C392.293 6.456 391.749 6.52 391.109 6.6C390.485 6.664 389.805 6.744 389.069 6.84C388.349 6.92 387.613 7.008 386.861 7.104C386.109 7.2 385.381 7.312 384.677 7.44C383.989 7.552 383.365 7.664 382.805 7.776L382.493 4.488Z" fill="black"/>
</svg>
