<svg width="157" height="24" viewBox="0 0 157 24" fill="none" xmlns="http://www.w3.org/2000/svg">
<path d="M12.312 8.352V10.416H19.584V8.352H12.312ZM12.312 4.08V6.096H19.584V4.08H12.312ZM9.72 1.632H22.32V12.84H9.72V1.632ZM9.552 14.904H22.584V17.496H9.552V14.904ZM7.872 19.8H23.376V22.392H7.872V19.8ZM0.84 1.992H8.808V4.68H0.84V1.992ZM1.08 8.904H8.4V11.568H1.08V8.904ZM0.576 18.024C2.64 17.496 5.712 16.536 8.592 15.6L9.096 18.36C6.408 19.272 3.528 20.208 1.224 20.952L0.576 18.024ZM3.504 3.048H6.24V17.808L3.504 18.24V3.048ZM14.784 2.664H17.208V11.712H17.472V21.024H14.52V11.712H14.784V2.664ZM27.408 6.792H34.056V8.904H27.408V6.792ZM27.408 10.728H34.056V12.768H27.408V10.728ZM27.408 14.736H34.056V16.872H27.408V14.736ZM37.8 12.024H46.848V14.448H37.8V12.024ZM28.584 2.856H32.376V5.016H28.584V2.856ZM36 1.848H44.904V4.2H36V1.848ZM36 16.608H47.304V19.104H36V16.608ZM40.488 9.864H43.224V23.088H40.488V9.864ZM30 7.896H31.92V15.528H30V7.896ZM44.136 1.848H46.704C46.704 1.848 46.68 2.448 46.656 2.76C46.536 6.624 46.32 8.28 45.792 8.904C45.408 9.408 44.952 9.6 44.328 9.696C43.8 9.768 42.864 9.792 41.904 9.744C41.856 9.024 41.616 8.064 41.256 7.44C42.024 7.512 42.648 7.536 42.96 7.536C43.272 7.536 43.464 7.488 43.632 7.272C43.896 6.96 44.04 5.664 44.136 2.184V1.848ZM37.32 10.032L39.672 10.488C39.24 12.696 38.448 14.904 37.512 16.32C37.032 15.984 35.976 15.456 35.4 15.192C36.336 13.92 36.984 11.952 37.32 10.032ZM28.008 0.599999L30.576 1.152C29.712 4.464 28.224 7.704 26.496 9.744C26.064 9.288 25.032 8.424 24.456 8.04C26.088 6.264 27.36 3.456 28.008 0.599999ZM26.352 6.792H28.656V13.152C28.656 16.224 28.344 20.496 26.592 23.208C26.16 22.824 25.128 22.176 24.576 21.936C26.208 19.44 26.352 15.864 26.352 13.152V6.792ZM33.288 6.792H35.64V20.4C35.64 21.528 35.424 22.248 34.704 22.68C33.96 23.088 32.976 23.136 31.512 23.136C31.416 22.464 31.032 21.36 30.696 20.712C31.632 20.76 32.592 20.76 32.88 20.736C33.168 20.736 33.288 20.64 33.288 20.352V6.792ZM38.88 2.64H41.448C41.16 6.144 40.344 8.832 36.768 10.416C36.48 9.816 35.832 8.88 35.256 8.448C38.136 7.272 38.64 5.232 38.88 2.64ZM31.704 2.856H32.256L32.616 2.736L34.248 3.768C33.72 5.28 32.784 7.176 32.04 8.376C31.584 8.04 30.792 7.56 30.288 7.296C30.816 6.192 31.416 4.416 31.704 3.288V2.856ZM49.656 4.56C50.592 4.536 51.552 4.488 52.008 4.44C54 4.248 57.96 3.912 62.352 3.528C64.848 3.336 67.464 3.168 69.168 3.096L69.192 6.192C67.896 6.192 65.832 6.216 64.536 6.504C61.656 7.272 59.472 10.392 59.472 13.248C59.472 17.184 63.168 18.624 67.224 18.816L66.096 22.104C61.08 21.792 56.328 19.08 56.328 13.872C56.328 10.44 58.272 7.704 59.88 6.48C57.648 6.72 52.728 7.248 49.968 7.848L49.656 4.56ZM65.76 8.544C66.336 9.384 67.2 10.848 67.656 11.808L65.856 12.6C65.232 11.304 64.728 10.344 63.984 9.288L65.76 8.544ZM68.424 7.44C69.048 8.28 69.96 9.696 70.464 10.632L68.664 11.496C68.016 10.2 67.464 9.288 66.696 8.232L68.424 7.44ZM75.936 3.792C79.44 4.2 82.368 4.248 84.912 4.056C87.096 3.912 89.064 3.528 91.056 2.904L91.44 5.64C89.712 6.12 87.624 6.528 85.536 6.672C83.064 6.864 79.752 6.888 76.104 6.528L75.936 3.792ZM75.504 8.808C79.824 9.24 83.712 9.168 86.592 8.88C89.184 8.664 90.984 8.184 92.376 7.776L92.856 10.608C91.416 10.968 89.64 11.304 87.696 11.52C84.672 11.856 79.992 11.928 75.672 11.64L75.504 8.808ZM83.52 4.464C83.28 3.576 82.992 2.688 82.656 1.752L85.872 1.392C86.16 3.696 86.76 5.808 87.384 7.656C87.96 9.336 89.136 11.808 90.24 13.488C90.576 13.968 90.888 14.328 91.32 14.736L89.88 16.944C88.536 16.656 85.92 16.368 84.168 16.176L84.408 13.872C85.416 13.968 86.736 14.088 87.432 14.16C86.16 12.024 85.272 9.936 84.672 8.184C84.072 6.48 83.832 5.616 83.52 4.464ZM80.112 14.4C79.536 15.192 79.032 16.008 79.032 17.04C79.032 18.816 80.712 19.536 83.904 19.536C86.16 19.536 88.2 19.368 89.928 19.032L89.76 22.08C88.08 22.344 85.872 22.512 83.904 22.512C79.128 22.512 76.152 21.096 76.08 17.688C76.056 16.128 76.56 14.952 77.136 13.824L80.112 14.4ZM97.968 5.28C99 5.4 100.296 5.448 101.16 5.448C104.136 5.448 107.376 4.944 109.704 4.2L109.776 6.984C107.712 7.56 104.256 8.184 101.184 8.16C100.224 8.16 99.216 8.136 98.184 8.088L97.968 5.28ZM107.304 1.68C106.992 2.952 106.416 5.304 105.768 7.344C104.664 10.8 102.504 15.264 100.464 18.096L97.56 16.608C99.72 13.968 101.88 9.768 102.816 7.176C103.392 5.448 103.92 3.216 103.992 1.368L107.304 1.68ZM112.944 9.168C112.872 10.176 112.896 11.184 112.92 12.24C112.968 13.656 113.184 17.232 113.184 18.576C113.184 20.808 111.984 22.56 108.552 22.56C105.576 22.56 103.224 21.216 103.224 18.576C103.224 16.248 105.192 14.424 108.528 14.424C112.728 14.424 116.04 16.536 118.032 18.336L116.448 20.928C114.72 19.32 111.984 16.848 108.36 16.848C106.968 16.848 106.056 17.448 106.056 18.288C106.056 19.176 106.824 19.8 108.144 19.8C109.776 19.8 110.304 18.888 110.304 17.544C110.304 16.104 110.04 11.688 109.92 9.168H112.944ZM117.072 10.44C115.68 9.312 112.944 7.752 111.288 7.008L112.848 4.656C114.576 5.4 117.528 7.008 118.776 7.896L117.072 10.44ZM126.216 3.864C126.048 4.704 125.928 6.12 125.928 6.792C125.928 8.352 125.928 10.128 126.072 11.88C126.408 15.336 127.128 17.712 128.64 17.712C129.792 17.712 130.728 14.88 131.184 12.984L133.608 15.888C132 20.088 130.512 21.528 128.592 21.528C125.928 21.528 123.648 19.176 122.976 12.744C122.736 10.536 122.712 7.704 122.712 6.24C122.712 5.592 122.688 4.56 122.52 3.816L126.216 3.864ZM138.216 4.392C140.496 7.152 142.344 13.152 142.608 16.824L139.44 18.072C139.08 14.184 137.784 8.376 135.168 5.4L138.216 4.392ZM147.571 21.2216C147.009 21.2216 146.526 21.0227 146.122 20.625C145.724 20.2216 145.526 19.7386 145.526 19.1761C145.526 18.6193 145.724 18.142 146.122 17.7443C146.526 17.3466 147.009 17.1477 147.571 17.1477C148.116 17.1477 148.594 17.3466 149.003 17.7443C149.412 18.142 149.616 18.6193 149.616 19.1761C149.616 19.5511 149.52 19.8949 149.327 20.2074C149.139 20.5142 148.892 20.7614 148.585 20.9489C148.278 21.1307 147.94 21.2216 147.571 21.2216ZM154.719 21.2216C154.157 21.2216 153.674 21.0227 153.271 20.625C152.873 20.2216 152.674 19.7386 152.674 19.1761C152.674 18.6193 152.873 18.142 153.271 17.7443C153.674 17.3466 154.157 17.1477 154.719 17.1477C155.265 17.1477 155.742 17.3466 156.151 17.7443C156.56 18.142 156.765 18.6193 156.765 19.1761C156.765 19.5511 156.668 19.8949 156.475 20.2074C156.288 20.5142 156.04 20.7614 155.734 20.9489C155.427 21.1307 155.089 21.2216 154.719 21.2216Z" fill="black"/>
</svg>
